<svg xmlns="http://www.w3.org/2000/svg" viewBox="0 0 16 17" width="128" height="136" shape-rendering="crispEdges"><title>Kastanje pixel chestnut</title><rect x="8.6" y="0.6" width="0.82" height="0.82" fill="#754331"/><rect x="6.6" y="1.6" width="0.82" height="0.82" fill="#754331"/><rect x="7.6" y="1.6" width="0.82" height="0.82" fill="#a75d38"/><rect x="8.6" y="1.6" width="0.82" height="0.82" fill="#a75d38"/><rect x="9.6" y="1.6" width="0.82" height="0.82" fill="#754331"/><rect x="4.6" y="2.6" width="0.82" height="0.82" fill="#754331"/><rect x="5.6" y="2.6" width="0.82" height="0.82" fill="#a75d38"/><rect x="6.6" y="2.6" width="0.82" height="0.82" fill="#a75d38"/><rect x="7.6" y="2.6" width="0.82" height="0.82" fill="#a75d38"/><rect x="8.6" y="2.6" width="0.82" height="0.82" fill="#a75d38"/><rect x="9.6" y="2.6" width="0.82" height="0.82" fill="#a75d38"/><rect x="10.6" y="2.6" width="0.82" height="0.82" fill="#8b482e"/><rect x="11.6" y="2.6" width="0.82" height="0.82" fill="#754331"/><rect x="3.6" y="3.6" width="0.82" height="0.82" fill="#754331"/><rect x="4.6" y="3.6" width="0.82" height="0.82" fill="#c9824e"/><rect x="5.6" y="3.6" width="0.82" height="0.82" fill="#c9824e"/><rect x="6.6" y="3.6" width="0.82" height="0.82" fill="#a75d38"/><rect x="7.6" y="3.6" width="0.82" height="0.82" fill="#a75d38"/><rect x="8.6" y="3.6" width="0.82" height="0.82" fill="#a75d38"/><rect x="9.6" y="3.6" width="0.82" height="0.82" fill="#a75d38"/><rect x="10.6" y="3.6" width="0.82" height="0.82" fill="#8b482e"/><rect x="11.6" y="3.6" width="0.82" height="0.82" fill="#8b482e"/><rect x="12.6" y="3.6" width="0.82" height="0.82" fill="#754331"/><rect x="2.6" y="4.6" width="0.82" height="0.82" fill="#754331"/><rect x="3.6" y="4.6" width="0.82" height="0.82" fill="#c9824e"/><rect x="4.6" y="4.6" width="0.82" height="0.82" fill="#c9824e"/><rect x="5.6" y="4.6" width="0.82" height="0.82" fill="#e3ac73"/><rect x="6.6" y="4.6" width="0.82" height="0.82" fill="#a75d38"/><rect x="7.6" y="4.6" width="0.82" height="0.82" fill="#a75d38"/><rect x="8.6" y="4.6" width="0.82" height="0.82" fill="#a75d38"/><rect x="9.6" y="4.6" width="0.82" height="0.82" fill="#a75d38"/><rect x="10.6" y="4.6" width="0.82" height="0.82" fill="#8b482e"/><rect x="11.6" y="4.6" width="0.82" height="0.82" fill="#8b482e"/><rect x="12.6" y="4.6" width="0.82" height="0.82" fill="#8b482e"/><rect x="13.6" y="4.6" width="0.82" height="0.82" fill="#754331"/><rect x="1.6" y="5.6" width="0.82" height="0.82" fill="#754331"/><rect x="2.6" y="5.6" width="0.82" height="0.82" fill="#c9824e"/><rect x="3.6" y="5.6" width="0.82" height="0.82" fill="#c9824e"/><rect x="4.6" y="5.6" width="0.82" height="0.82" fill="#e3ac73"/><rect x="5.6" y="5.6" width="0.82" height="0.82" fill="#c9824e"/><rect x="6.6" y="5.6" width="0.82" height="0.82" fill="#a75d38"/><rect x="7.6" y="5.6" width="0.82" height="0.82" fill="#a75d38"/><rect x="8.6" y="5.6" width="0.82" height="0.82" fill="#a75d38"/><rect x="9.6" y="5.6" width="0.82" height="0.82" fill="#a75d38"/><rect x="10.6" y="5.6" width="0.82" height="0.82" fill="#8b482e"/><rect x="11.6" y="5.6" width="0.82" height="0.82" fill="#8b482e"/><rect x="12.6" y="5.6" width="0.82" height="0.82" fill="#8b482e"/><rect x="13.6" y="5.6" width="0.82" height="0.82" fill="#754331"/><rect x="1.6" y="6.6" width="0.82" height="0.82" fill="#754331"/><rect x="2.6" y="6.6" width="0.82" height="0.82" fill="#c9824e"/><rect x="3.6" y="6.6" width="0.82" height="0.82" fill="#e3ac73"/><rect x="4.6" y="6.6" width="0.82" height="0.82" fill="#c9824e"/><rect x="5.6" y="6.6" width="0.82" height="0.82" fill="#c9824e"/><rect x="6.6" y="6.6" width="0.82" height="0.82" fill="#a75d38"/><rect x="7.6" y="6.6" width="0.82" height="0.82" fill="#a75d38"/><rect x="8.6" y="6.6" width="0.82" height="0.82" fill="#a75d38"/><rect x="9.6" y="6.6" width="0.82" height="0.82" fill="#a75d38"/><rect x="10.6" y="6.6" width="0.82" height="0.82" fill="#8b482e"/><rect x="11.6" y="6.6" width="0.82" height="0.82" fill="#8b482e"/><rect x="12.6" y="6.6" width="0.82" height="0.82" fill="#8b482e"/><rect x="13.6" y="6.6" width="0.82" height="0.82" fill="#8b482e"/><rect x="14.6" y="6.6" width="0.82" height="0.82" fill="#754331"/><rect x="0.6" y="7.6" width="0.82" height="0.82" fill="#754331"/><rect x="1.6" y="7.6" width="0.82" height="0.82" fill="#c9824e"/><rect x="2.6" y="7.6" width="0.82" height="0.82" fill="#c9824e"/><rect x="3.6" y="7.6" width="0.82" height="0.82" fill="#e3ac73"/><rect x="4.6" y="7.6" width="0.82" height="0.82" fill="#c9824e"/><rect x="5.6" y="7.6" width="0.82" height="0.82" fill="#c9824e"/><rect x="6.6" y="7.6" width="0.82" height="0.82" fill="#a75d38"/><rect x="7.6" y="7.6" width="0.82" height="0.82" fill="#a75d38"/><rect x="8.6" y="7.6" width="0.82" height="0.82" fill="#a75d38"/><rect x="9.6" y="7.6" width="0.82" height="0.82" fill="#a75d38"/><rect x="10.6" y="7.6" width="0.82" height="0.82" fill="#8b482e"/><rect x="11.6" y="7.6" width="0.82" height="0.82" fill="#8b482e"/><rect x="12.6" y="7.6" width="0.82" height="0.82" fill="#8b482e"/><rect x="13.6" y="7.6" width="0.82" height="0.82" fill="#8b482e"/><rect x="14.6" y="7.6" width="0.82" height="0.82" fill="#754331"/><rect x="0.6" y="8.6" width="0.82" height="0.82" fill="#754331"/><rect x="1.6" y="8.6" width="0.82" height="0.82" fill="#c9824e"/><rect x="2.6" y="8.6" width="0.82" height="0.82" fill="#c9824e"/><rect x="3.6" y="8.6" width="0.82" height="0.82" fill="#c9824e"/><rect x="4.6" y="8.6" width="0.82" height="0.82" fill="#c9824e"/><rect x="5.6" y="8.6" width="0.82" height="0.82" fill="#c9824e"/><rect x="6.6" y="8.6" width="0.82" height="0.82" fill="#a75d38"/><rect x="7.6" y="8.6" width="0.82" height="0.82" fill="#a75d38"/><rect x="8.6" y="8.6" width="0.82" height="0.82" fill="#a75d38"/><rect x="9.6" y="8.6" width="0.82" height="0.82" fill="#a75d38"/><rect x="10.6" y="8.6" width="0.82" height="0.82" fill="#8b482e"/><rect x="11.6" y="8.6" width="0.82" height="0.82" fill="#8b482e"/><rect x="12.6" y="8.6" width="0.82" height="0.82" fill="#8b482e"/><rect x="13.6" y="8.6" width="0.82" height="0.82" fill="#8b482e"/><rect x="14.6" y="8.6" width="0.82" height="0.82" fill="#754331"/><rect x="0.6" y="9.6" width="0.82" height="0.82" fill="#754331"/><rect x="1.6" y="9.6" width="0.82" height="0.82" fill="#a75d38"/><rect x="2.6" y="9.6" width="0.82" height="0.82" fill="#a75d38"/><rect x="3.6" y="9.6" width="0.82" height="0.82" fill="#a75d38"/><rect x="4.6" y="9.6" width="0.82" height="0.82" fill="#a75d38"/><rect x="5.6" y="9.6" width="0.82" height="0.82" fill="#ead0a2"/><rect x="6.6" y="9.6" width="0.82" height="0.82" fill="#ead0a2"/><rect x="7.6" y="9.6" width="0.82" height="0.82" fill="#ead0a2"/><rect x="8.6" y="9.6" width="0.82" height="0.82" fill="#ead0a2"/><rect x="9.6" y="9.6" width="0.82" height="0.82" fill="#a75d38"/><rect x="10.6" y="9.6" width="0.82" height="0.82" fill="#8b482e"/><rect x="11.6" y="9.6" width="0.82" height="0.82" fill="#8b482e"/><rect x="12.6" y="9.6" width="0.82" height="0.82" fill="#8b482e"/><rect x="13.6" y="9.6" width="0.82" height="0.82" fill="#8b482e"/><rect x="14.6" y="9.6" width="0.82" height="0.82" fill="#754331"/><rect x="0.6" y="10.6" width="0.82" height="0.82" fill="#754331"/><rect x="1.6" y="10.6" width="0.82" height="0.82" fill="#a75d38"/><rect x="2.6" y="10.6" width="0.82" height="0.82" fill="#a75d38"/><rect x="3.6" y="10.6" width="0.82" height="0.82" fill="#ead0a2"/><rect x="4.6" y="10.6" width="0.82" height="0.82" fill="#ead0a2"/><rect x="5.6" y="10.6" width="0.82" height="0.82" fill="#ead0a2"/><rect x="6.6" y="10.6" width="0.82" height="0.82" fill="#ead0a2"/><rect x="7.6" y="10.6" width="0.82" height="0.82" fill="#ead0a2"/><rect x="8.6" y="10.6" width="0.82" height="0.82" fill="#ead0a2"/><rect x="9.6" y="10.6" width="0.82" height="0.82" fill="#ead0a2"/><rect x="10.6" y="10.6" width="0.82" height="0.82" fill="#c7a170"/><rect x="11.6" y="10.6" width="0.82" height="0.82" fill="#8b482e"/><rect x="12.6" y="10.6" width="0.82" height="0.82" fill="#8b482e"/><rect x="13.6" y="10.6" width="0.82" height="0.82" fill="#8b482e"/><rect x="14.6" y="10.6" width="0.82" height="0.82" fill="#754331"/><rect x="1.6" y="11.6" width="0.82" height="0.82" fill="#754331"/><rect x="2.6" y="11.6" width="0.82" height="0.82" fill="#ead0a2"/><rect x="3.6" y="11.6" width="0.82" height="0.82" fill="#ead0a2"/><rect x="4.6" y="11.6" width="0.82" height="0.82" fill="#ead0a2"/><rect x="5.6" y="11.6" width="0.82" height="0.82" fill="#ead0a2"/><rect x="6.6" y="11.6" width="0.82" height="0.82" fill="#ead0a2"/><rect x="7.6" y="11.6" width="0.82" height="0.82" fill="#ead0a2"/><rect x="8.6" y="11.6" width="0.82" height="0.82" fill="#ead0a2"/><rect x="9.6" y="11.6" width="0.82" height="0.82" fill="#ead0a2"/><rect x="10.6" y="11.6" width="0.82" height="0.82" fill="#c7a170"/><rect x="11.6" y="11.6" width="0.82" height="0.82" fill="#c7a170"/><rect x="12.6" y="11.6" width="0.82" height="0.82" fill="#8b482e"/><rect x="13.6" y="11.6" width="0.82" height="0.82" fill="#754331"/><rect x="1.6" y="12.6" width="0.82" height="0.82" fill="#754331"/><rect x="2.6" y="12.6" width="0.82" height="0.82" fill="#a75d38"/><rect x="3.6" y="12.6" width="0.82" height="0.82" fill="#c7a170"/><rect x="4.6" y="12.6" width="0.82" height="0.82" fill="#c7a170"/><rect x="5.6" y="12.6" width="0.82" height="0.82" fill="#c7a170"/><rect x="6.6" y="12.6" width="0.82" height="0.82" fill="#c7a170"/><rect x="7.6" y="12.6" width="0.82" height="0.82" fill="#c7a170"/><rect x="8.6" y="12.6" width="0.82" height="0.82" fill="#c7a170"/><rect x="9.6" y="12.6" width="0.82" height="0.82" fill="#c7a170"/><rect x="10.6" y="12.6" width="0.82" height="0.82" fill="#c7a170"/><rect x="11.6" y="12.6" width="0.82" height="0.82" fill="#8b482e"/><rect x="12.6" y="12.6" width="0.82" height="0.82" fill="#8b482e"/><rect x="13.6" y="12.6" width="0.82" height="0.82" fill="#754331"/><rect x="2.6" y="13.6" width="0.82" height="0.82" fill="#754331"/><rect x="3.6" y="13.6" width="0.82" height="0.82" fill="#a75d38"/><rect x="4.6" y="13.6" width="0.82" height="0.82" fill="#c7a170"/><rect x="5.6" y="13.6" width="0.82" height="0.82" fill="#c7a170"/><rect x="6.6" y="13.6" width="0.82" height="0.82" fill="#c7a170"/><rect x="7.6" y="13.6" width="0.82" height="0.82" fill="#c7a170"/><rect x="8.6" y="13.6" width="0.82" height="0.82" fill="#c7a170"/><rect x="9.6" y="13.6" width="0.82" height="0.82" fill="#c7a170"/><rect x="10.6" y="13.6" width="0.82" height="0.82" fill="#8b482e"/><rect x="11.6" y="13.6" width="0.82" height="0.82" fill="#8b482e"/><rect x="12.6" y="13.6" width="0.82" height="0.82" fill="#754331"/><rect x="3.6" y="14.6" width="0.82" height="0.82" fill="#754331"/><rect x="4.6" y="14.6" width="0.82" height="0.82" fill="#a75d38"/><rect x="5.6" y="14.6" width="0.82" height="0.82" fill="#a75d38"/><rect x="6.6" y="14.6" width="0.82" height="0.82" fill="#a75d38"/><rect x="7.6" y="14.6" width="0.82" height="0.82" fill="#a75d38"/><rect x="8.6" y="14.6" width="0.82" height="0.82" fill="#a75d38"/><rect x="9.6" y="14.6" width="0.82" height="0.82" fill="#a75d38"/><rect x="10.6" y="14.6" width="0.82" height="0.82" fill="#8b482e"/><rect x="11.6" y="14.6" width="0.82" height="0.82" fill="#754331"/><rect x="5.6" y="15.6" width="0.82" height="0.82" fill="#754331"/><rect x="6.6" y="15.6" width="0.82" height="0.82" fill="#754331"/><rect x="7.6" y="15.6" width="0.82" height="0.82" fill="#754331"/><rect x="8.6" y="15.6" width="0.82" height="0.82" fill="#754331"/><rect x="9.6" y="15.6" width="0.82" height="0.82" fill="#754331"/></svg>
